<?xml version="1.0" encoding="UTF-8"?><svg id="Layer_2" xmlns="http://www.w3.org/2000/svg" viewBox="0 0 400.85 174.2"><g id="Layer_1-2"><g><g><path d="M106.63,93.89c-2.91-7-6.87-13.07-11.87-18.21-5.01-5.14-10.87-9.15-17.6-12.02-6.73-2.87-13.95-4.31-21.66-4.31-2.5,0-5.07,.25-7.71,.76-2.64,.51-5.19,1.23-7.66,2.18-2.47,.95-4.77,2.17-6.9,3.65-2.13,1.49-3.94,3.18-5.43,5.07V13.9C27.8,6.22,21.58,0,13.9,0h0C6.22,0,0,6.22,0,13.9V116.87c0,8.39,1.45,16.08,4.36,23.08,2.91,7,6.88,13.04,11.92,18.11,5.04,5.07,10.92,9.03,17.65,11.87,6.73,2.84,13.92,4.26,21.56,4.26s14.93-1.39,21.66-4.16c6.73-2.77,12.6-6.68,17.6-11.72,5-5.04,8.96-11.07,11.87-18.11,2.91-7.03,4.36-14.81,4.36-23.34s-1.46-15.98-4.36-22.98Zm-46.55,70.86h-8.46c-1.69,0-3.07-1.37-3.07-3.07s1.37-3.07,3.07-3.07h8.46c1.69,0,3.07,1.37,3.07,3.07s-1.37,3.07-3.07,3.07Zm3.88-8.75h-16.93c-1.69,0-3.07-1.37-3.07-3.07s1.37-3.07,3.07-3.07h16.93c1.69,0,3.07,1.37,3.07,3.07s-1.37,3.07-3.07,3.07Zm16.95-27.47c-1.46,3.59-3.43,6.7-5.94,9.33-1.23,1.3-2.57,2.46-4,3.49,1.11,.46,1.89,1.56,1.89,2.83,0,1.69-1.37,3.07-3.07,3.07h-27.89c-1.69,0-3.07-1.37-3.07-3.07,0-1.12,.6-2.09,1.5-2.62-1.55-1.08-3-2.3-4.31-3.69-2.5-2.64-4.46-5.75-5.88-9.33-1.42-3.58-2.13-7.47-2.13-11.67,0-3.79,.71-7.46,2.13-11.01,1.42-3.55,3.38-6.7,5.88-9.44,2.5-2.74,5.43-4.94,8.78-6.59,3.35-1.66,6.91-2.49,10.7-2.49s7.36,.75,10.7,2.23c3.35,1.49,6.27,3.55,8.78,6.19,2.5,2.64,4.48,5.77,5.94,9.39,1.45,3.62,2.18,7.53,2.18,11.72s-.73,8.08-2.18,11.67Z" style="fill:#fff;"/><path d="M253.27,172.17h0c-7.7,0-13.95-6.25-13.95-13.95V13.95C239.32,6.25,245.57,0,253.27,0h0c7.7,0,13.95,6.25,13.95,13.95V158.22c0,7.7-6.25,13.95-13.95,13.95Z" style="fill:#fff;"/><path d="M400.85,116.87c0,8.52-1.46,16.3-4.36,23.34-2.91,7.04-6.87,13.07-11.87,18.11-5.01,5.04-10.87,8.95-17.6,11.72-6.73,2.77-13.95,4.16-21.66,4.16s-14.83-1.42-21.56-4.26c-6.73-2.84-12.62-6.8-17.65-11.87-5.04-5.07-9.01-11.11-11.92-18.11-2.91-7-4.36-14.69-4.36-23.08V13.9C289.86,6.22,296.08,0,303.76,0h0c7.68,0,13.9,6.22,13.9,13.9v57.12c1.49-1.89,3.3-3.58,5.43-5.07,2.13-1.49,4.43-2.7,6.9-3.65,2.47-.95,5.02-1.67,7.66-2.18,2.64-.51,5.21-.76,7.71-.76,7.71,0,14.93,1.44,21.66,4.31,6.73,2.88,12.6,6.88,17.6,12.02,5,5.14,8.96,11.21,11.87,18.21,2.91,7,4.36,14.66,4.36,22.98Zm-27.9,0c0-4.19-.73-8.1-2.18-11.72-1.46-3.62-3.43-6.75-5.94-9.39-2.5-2.64-5.43-4.7-8.77-6.19-3.35-1.49-6.92-2.23-10.71-2.23s-7.35,.83-10.7,2.49c-3.35,1.66-6.27,3.86-8.78,6.59-2.5,2.74-4.46,5.88-5.88,9.44-1.42,3.55-2.13,7.22-2.13,11.01,0,4.19,.71,8.08,2.13,11.67,1.42,3.59,3.38,6.7,5.88,9.33,2.5,2.64,5.43,4.72,8.78,6.24,3.35,1.52,6.91,2.28,10.7,2.28s7.36-.76,10.71-2.28c3.35-1.52,6.27-3.6,8.77-6.24,2.5-2.64,4.48-5.75,5.94-9.33,1.46-3.58,2.18-7.47,2.18-11.67Z" style="fill:#fff;"/><path d="M219.36,123.57v-47.53c0-6.92-5.61-12.53-12.53-12.53h0c-6.92,0-12.53,5.61-12.53,12.53v47.53c0,2.91-.54,5.73-1.62,8.47-1.08,2.74-2.57,5.19-4.46,7.36-1.89,2.17-4.11,3.91-6.64,5.22-2.54,1.32-5.22,1.98-8.07,1.98-.46,0-.91-.03-1.36-.06-.45,.03-.9,.06-1.37,.06-2.84,0-5.53-.66-8.07-1.98s-4.75-3.06-6.64-5.22c-1.89-2.16-3.38-4.62-4.46-7.36-1.08-2.74-1.62-5.56-1.62-8.47v-47.53c0-6.92-5.61-12.53-12.53-12.53h0c-6.92,0-12.53,5.61-12.53,12.53v47.53c0,7.78,1.27,14.8,3.8,21.05,2.36,5.83,5.56,10.82,9.57,15.01,2.18,1.97,4.51,3.84,6.98,5.59,2.54,1.79,5.19,3.35,7.96,4.67,1.45,.69,2.93,1.3,4.43,1.85,4.59,1.5,9.42,2.31,14.48,2.44,5.06-.12,9.89-.93,14.48-2.44,1.5-.54,2.98-1.16,4.43-1.85,2.77-1.32,5.43-2.87,7.96-4.67,2.47-1.75,4.8-3.61,6.98-5.59,4.01-4.19,7.2-9.18,9.57-15.01,2.54-6.26,3.8-13.27,3.8-21.05Z" style="fill:#fff;"/></g><path d="M63.96,156.01h-16.93c-1.69,0-3.07-1.37-3.07-3.07s1.37-3.07,3.07-3.07h16.93c1.69,0,3.07,1.37,3.07,3.07s-1.37,3.07-3.07,3.07Z" style="fill:#ffc022;"/><path d="M60.08,164.75h-8.46c-1.69,0-3.07-1.37-3.07-3.07s1.37-3.07,3.07-3.07h8.46c1.69,0,3.07,1.37,3.07,3.07s-1.37,3.07-3.07,3.07Z" style="fill:#ff5d31;"/></g></g></svg>