<?xml version="1.0" encoding="UTF-8"?><svg id="Isolation_Mode" xmlns="http://www.w3.org/2000/svg" viewBox="0 0 110.99 174.2"><path d="M106.63,93.89c-2.91-7-6.87-13.07-11.87-18.21-5.01-5.14-10.87-9.15-17.6-12.02-6.73-2.87-13.95-4.31-21.66-4.31-2.5,0-5.07,.25-7.71,.76-2.64,.51-5.19,1.23-7.66,2.18-2.47,.95-4.77,2.17-6.9,3.65-2.13,1.49-3.94,3.18-5.43,5.07V13.9C27.8,6.22,21.58,0,13.9,0h0C6.22,0,0,6.22,0,13.9V116.87c0,8.39,1.45,16.08,4.36,23.08,2.91,7,6.88,13.04,11.92,18.11,5.04,5.07,10.92,9.03,17.65,11.87,6.73,2.84,13.92,4.26,21.56,4.26s14.93-1.39,21.66-4.16c6.73-2.77,12.6-6.68,17.6-11.72,5-5.04,8.96-11.07,11.87-18.11,2.91-7.03,4.36-14.81,4.36-23.34s-1.46-15.98-4.36-22.98Zm-46.55,70.86h-8.46c-1.69,0-3.07-1.37-3.07-3.07s1.37-3.07,3.07-3.07h8.46c1.69,0,3.07,1.37,3.07,3.07s-1.37,3.07-3.07,3.07Zm3.88-8.75h-16.93c-1.69,0-3.07-1.37-3.07-3.07s1.37-3.07,3.07-3.07h16.93c1.69,0,3.07,1.37,3.07,3.07s-1.37,3.07-3.07,3.07Zm16.95-27.47c-1.46,3.59-3.43,6.7-5.94,9.33-1.23,1.3-2.57,2.46-4,3.49,1.11,.46,1.89,1.56,1.89,2.83,0,1.69-1.37,3.07-3.07,3.07h-27.89c-1.69,0-3.07-1.37-3.07-3.07,0-1.12,.6-2.09,1.5-2.62-1.55-1.08-3-2.3-4.31-3.69-2.5-2.64-4.46-5.75-5.88-9.33-1.42-3.58-2.13-7.47-2.13-11.67,0-3.79,.71-7.46,2.13-11.01,1.42-3.55,3.38-6.7,5.88-9.44,2.5-2.74,5.43-4.94,8.78-6.59,3.35-1.66,6.91-2.49,10.7-2.49s7.36,.75,10.7,2.23c3.35,1.49,6.27,3.55,8.78,6.19,2.5,2.64,4.48,5.77,5.94,9.39,1.45,3.62,2.18,7.53,2.18,11.72s-.73,8.08-2.18,11.67Z" style="fill:#fff;"/><path d="M63.96,156.01h-16.93c-1.69,0-3.07-1.37-3.07-3.07s1.37-3.07,3.07-3.07h16.93c1.69,0,3.07,1.37,3.07,3.07s-1.37,3.07-3.07,3.07Z" style="fill:#ffc022;"/><path d="M60.08,164.75h-8.46c-1.69,0-3.07-1.37-3.07-3.07s1.37-3.07,3.07-3.07h8.46c1.69,0,3.07,1.37,3.07,3.07s-1.37,3.07-3.07,3.07Z" style="fill:#ff5d31;"/></svg>