<svg xmlns="http://www.w3.org/2000/svg" width="88" height="88" viewBox="0 0 88 88"><g transform="translate(-6 -6)"><circle cx="44" cy="44" r="44" transform="translate(6 6)" fill="#e6f4ff"/><path d="M16.536,43.908A2.171,2.171,0,0,0,18.7,46.074h9.527a2.171,2.171,0,0,0,2.165-2.165V41.96H16.536ZM23.465,4.5c-8.629,0-15.59,6.485-15.59,14.507a14.318,14.318,0,0,0,6.647,11.974v4.7a2.164,2.164,0,0,0,2.23,2.079H30.167A2.157,2.157,0,0,0,32.4,35.68v-4.7a14.3,14.3,0,0,0,6.658-11.974C39.055,10.985,32.094,4.5,23.465,4.5Z" transform="translate(26.535 24.713)" fill="#0020ea" opacity="0.504"/></g></svg>